HIERARCHY
ROOT Hips
{
	OFFSET 0.000000 0.000000 0.000000
	CHANNELS 6 Xposition Yposition Zposition Zrotation Xrotation Yrotation
	JOINT RightUpLeg
	{
		OFFSET -9.711200 0.000000 0.000000
		CHANNELS 3 Zrotation Xrotation Yrotation
		JOINT RightLeg
		{
			OFFSET 0.000000 -42.071800 0.000000
			CHANNELS 3 Zrotation Xrotation Yrotation
			JOINT RightFoot
			{
				OFFSET 0.000000 -40.121000 0.000000
				CHANNELS 3 Zrotation Xrotation Yrotation
				JOINT RightToe
				{
					OFFSET 0.000000 -9.631400 3.100600
					CHANNELS 3 Zrotation Xrotation Yrotation
					JOINT RightToeEnd
					{
						OFFSET 0.000000 -4.048200 4.118000
						CHANNELS 3 Zrotation Xrotation Yrotation
						End Site
						{
						    OFFSET 0.000000 -3.505200 3.565600
						}
					}
				}
			}
		}
	}
	JOINT LeftUpLeg
	{
		OFFSET 9.711200 0.000000 0.000000
		CHANNELS 3 Zrotation Xrotation Yrotation
		JOINT LeftLeg
		{
			OFFSET 0.000000 -42.071800 0.000000
			CHANNELS 3 Zrotation Xrotation Yrotation
			JOINT LeftFoot
			{
				OFFSET 0.000000 -40.121000 0.000000
				CHANNELS 3 Zrotation Xrotation Yrotation
				JOINT LeftToe
				{
					OFFSET 0.000000 -9.631400 3.100600
					CHANNELS 3 Zrotation Xrotation Yrotation
					JOINT LeftToeEnd
					{
						OFFSET 0.000000 -4.048200 4.118000
						CHANNELS 3 Zrotation Xrotation Yrotation
						End Site
						{
						    OFFSET 0.000000 -3.505200 3.565600
						}
					}
				}
			}
		}
	}
	JOINT Spine
	{
		OFFSET 0.000000 14.595200 0.000000
		CHANNELS 3 Zrotation Xrotation Yrotation
		JOINT Spine1
		{
			OFFSET 0.000000 9.770300 0.000000
			CHANNELS 3 Zrotation Xrotation Yrotation
			JOINT Spine2
			{
				OFFSET 0.000000 14.330100 0.000000
				CHANNELS 3 Zrotation Xrotation Yrotation
				JOINT LeftShoulder
				{
					OFFSET 2.000000 14.330100 0.000000
					CHANNELS 3 Zrotation Xrotation Yrotation
					JOINT LeftArm
					{
						OFFSET 14.369100 0.000000 0.000000
						CHANNELS 3 Zrotation Xrotation Yrotation
						JOINT LeftForeArm
						{
							OFFSET 0.000000 -27.196400 0.000000
							CHANNELS 3 Zrotation Xrotation Yrotation
							JOINT LeftHand
							{
								OFFSET 0.000000 -24.849000 0.000000
								CHANNELS 3 Zrotation Xrotation Yrotation
								JOINT LeftFinger0
								{
									OFFSET 0.000000 -7.367300 0.000000
									CHANNELS 3 Zrotation Xrotation Yrotation
									End Site
									{
									    OFFSET 0.000000 -5.000000 0.000000
									}
								}
							}
						}
					}
				}
				JOINT RightShoulder
				{
					OFFSET -2.000000 14.330100 0.000000
					CHANNELS 3 Zrotation Xrotation Yrotation
					JOINT RightArm
					{
						OFFSET -14.369100 0.000000 0.000000
						CHANNELS 3 Zrotation Xrotation Yrotation
						JOINT RightForeArm
						{
							OFFSET 0.000000 -27.196400 0.000000
							CHANNELS 3 Zrotation Xrotation Yrotation
							JOINT RightHand
							{
								OFFSET 0.000000 -24.849000 0.000000
								CHANNELS 3 Zrotation Xrotation Yrotation
								JOINT RightFinger0
								{
									OFFSET 0.000000 -7.367300 0.000000
									CHANNELS 3 Zrotation Xrotation Yrotation
									End Site
									{
									    OFFSET 0.000000 -5.000000 0.000000
									}
								}
							}
						}
					}
				}
				JOINT Neck
				{
					OFFSET 0.000000 14.330100 0.000000
					CHANNELS 3 Zrotation Xrotation Yrotation
					JOINT Head
					{
						OFFSET 0.000000 8.944300 0.000000
						CHANNELS 3 Zrotation Xrotation Yrotation
						JOINT HeadTip
						{
							OFFSET 0.000000 10.000000 0.000000
							CHANNELS 3 Zrotation Xrotation Yrotation
							End Site
							{
							    OFFSET 0.000000 5.000000 0.000000
							}
						}
					}
				}
			}
		}
	}
}
MOTION
Frames:	10
Frame Time:	0.033332
-213.004800 89.075500 -27.717000 -0.946414 1.268214 1.017876 -0.101678 -5.978275 -15.726441 0.000000 5.401319 -0.000000 -2.428464 -43.030992 -23.304039 -0.000000 -0.331173 0.000000 -0.000000 0.000000 -0.000000 1.498019 -5.341542 12.383133 0.000000 6.264610 -0.000000 -4.961191 -48.630617 -11.193815 -0.000000 2.341717 -0.000000 -0.000000 -0.000000 0.000000 2.526560 -1.296989 2.158282 0.000000 1.593650 -0.000000 -0.000000 0.000000 0.000000 5.851234 -0.000000 6.005017 89.855360 -13.438387 55.794799 -0.000000 -9.695572 -0.000000 5.212707 11.621359 -45.910252 0.000000 0.000000 -0.000000 -13.834663 -0.000000 -9.841592 -97.360030 -8.254186 -17.485660 -0.000015 -5.724325 -0.000001 0.341929 13.740693 21.749501 -0.000000 0.000000 0.000000 -0.000000 0.000000 0.000000 0.207629 13.996033 -5.125598 0.000000 -0.000000 0.000000 
-213.007900 89.074000 -27.708400 -0.945604 1.267017 1.067346 -0.107431 -5.980292 -15.772315 -0.000000 5.431040 -0.000000 -2.469816 -43.048886 -23.305720 -0.000000 -0.333148 -0.000000 -0.000000 -0.000000 -0.000000 1.498212 -5.343891 12.386436 0.000000 6.269840 -0.000000 -5.037387 -48.617101 -11.255450 -0.000000 2.327592 -0.000000 0.000000 0.000000 -0.000000 2.516494 -1.287611 2.119784 -0.000000 1.602287 -0.000000 -0.000000 0.000000 -0.000000 5.879675 0.000000 6.018128 89.844524 -13.456999 55.814721 0.000000 -9.724175 -0.000000 5.180403 11.662890 -46.048648 -0.000000 0.000000 0.000000 -13.818768 0.000000 -9.854205 -97.372078 -8.272770 -17.465117 -0.000015 -5.754103 -0.000001 0.269474 13.765417 21.846722 0.000000 0.000000 0.000000 -0.000000 0.000000 -0.000000 0.256495 14.018562 -5.113519 -0.000000 -0.000000 0.000000 
-213.014400 89.074500 -27.692100 -0.947609 1.263670 1.119603 -0.104742 -5.960989 -15.791817 0.000000 5.433081 -0.000000 -2.462957 -43.076639 -23.344534 -0.000000 -0.330685 -0.000000 -0.000000 -0.000000 0.000000 1.503571 -5.340713 12.374409 0.000000 6.274099 -0.000000 -5.090156 -48.601149 -11.311534 -0.000000 2.324903 -0.000000 -0.000000 0.000000 0.000000 2.508622 -1.283301 2.086705 -0.000000 1.600392 -0.000000 -0.000000 0.000000 -0.000000 5.880563 -0.000000 6.002761 89.870008 -13.465176 55.850582 -0.000000 -9.718927 -0.000000 5.192103 11.725239 -45.972953 -0.000000 -0.000000 -0.000000 -13.788261 0.000000 -9.871343 -97.403411 -8.290556 -17.441657 -0.000015 -5.734432 -0.000001 0.263528 13.764544 21.900854 -0.000000 0.000000 -0.000000 -0.000000 0.000000 -0.000000 0.288086 14.042552 -5.130565 -0.000000 0.000000 -0.000000 
-213.018700 89.074300 -27.677700 -0.951497 1.269308 1.158517 -0.100136 -5.961312 -15.800673 0.000000 5.443353 0.000000 -2.545731 -43.086393 -23.409755 -0.000000 -0.280179 -0.000000 -0.000000 0.000000 0.000000 1.506882 -5.347250 12.313037 0.000000 6.282549 -0.000000 -5.084921 -48.606355 -11.267069 -0.000000 2.342631 -0.000000 -0.000000 0.000000 -0.000000 2.502264 -1.290397 2.055389 -0.000000 1.602352 -0.000000 0.000000 0.000000 -0.000000 5.907503 0.000000 6.045340 89.843705 -13.525853 55.793842 0.000000 -9.738708 -0.000000 5.090800 11.742015 -46.048546 0.000000 -0.000000 -0.000000 -13.755344 -0.000000 -9.877281 -97.412715 -8.307529 -17.436740 -0.000015 -5.732988 -0.000001 0.213861 13.717528 21.783677 0.000000 -0.000000 -0.000000 0.000000 0.000000 -0.000000 0.311025 14.046832 -5.118826 -0.000000 0.000000 -0.000000 
-213.020900 89.073400 -27.665800 -0.949808 1.270137 1.172162 -0.101594 -5.960475 -15.816745 0.000000 5.458663 -0.000000 -2.569981 -43.080219 -23.390388 0.000000 -0.341081 -0.000000 0.000000 0.000000 -0.000000 1.505855 -5.336299 12.354500 -0.000000 6.272172 -0.000000 -5.151159 -48.593592 -11.340874 -0.000000 2.332633 0.000000 -0.000000 -0.000000 -0.000000 2.497579 -1.300322 2.047342 -0.000000 1.619013 -0.000000 0.000000 0.000000 -0.000000 5.881711 -0.000000 6.034818 89.897277 -13.513875 55.717806 -0.000000 -9.710503 -0.000000 5.101009 11.737827 -46.086197 -0.000000 0.000000 0.000000 -13.742828 -0.000000 -9.881507 -97.394488 -8.300246 -17.411051 -0.000015 -5.776511 -0.000001 0.169919 13.760269 21.961460 0.000000 0.000000 -0.000000 0.000000 0.000000 -0.000000 0.320173 14.030244 -5.106260 -0.000000 -0.000000 -0.000000 
-213.025100 89.074000 -27.660500 -0.951465 1.283702 1.157659 -0.097214 -5.973412 -15.812433 -0.000000 5.463996 -0.000000 -2.552477 -43.089026 -23.363633 -0.000000 -0.295421 -0.000000 -0.000000 -0.000000 -0.000000 1.512999 -5.358212 12.343775 -0.000000 6.298573 -0.000000 -5.100029 -48.616278 -11.296364 0.000000 2.354044 0.000000 -0.000000 0.000000 -0.000000 2.495458 -1.308733 2.048593 -0.000000 1.616033 -0.000000 -0.000000 -0.000000 -0.000000 5.882825 0.000000 6.048985 89.879995 -13.502948 55.742160 0.000000 -9.733064 -0.000000 5.191760 11.724747 -46.138562 0.000000 0.000000 -0.000000 -13.724148 0.000000 -9.864132 -97.381975 -8.314423 -17.362514 -0.000015 -5.751651 -0.000001 0.258137 13.676928 21.842581 0.000000 0.000000 -0.000000 -0.000000 -0.000000 -0.000000 0.306209 14.017105 -5.074897 -0.000000 0.000000 -0.000000 
-213.023600 89.071200 -27.649700 -0.950161 1.285075 1.119110 -0.093137 -5.959715 -15.808308 0.000000 5.436661 0.000000 -2.522904 -43.072851 -23.327288 0.000000 -0.360902 -0.000000 -0.000000 -0.000000 -0.000000 1.513418 -5.353405 12.357650 -0.000000 6.311658 -0.000000 -5.058655 -48.649183 -11.274584 -0.000000 2.381651 -0.000000 -0.000000 0.000000 -0.000000 2.498517 -1.315346 2.078256 0.000000 1.624902 -0.000000 -0.000000 0.000000 -0.000000 5.853494 0.000000 6.080090 89.918799 -13.516404 55.632884 -0.000000 -9.739077 -0.000000 5.070816 11.785062 -46.148982 0.000000 -0.000000 -0.000000 -13.715292 0.000000 -9.854146 -97.346631 -8.308906 -17.316926 -0.000015 -5.762917 -0.000001 0.167957 13.763577 21.961355 -0.000000 0.000000 -0.000000 -0.000000 0.000000 -0.000000 0.292694 13.982187 -5.063573 -0.000000 0.000000 0.000000 
-213.023800 89.071200 -27.646600 -0.949201 1.283570 1.080019 -0.092103 -5.957601 -15.777398 0.000000 5.434584 -0.000000 -2.478450 -43.114269 -23.359040 -0.000000 -0.304272 -0.000000 -0.000000 0.000000 -0.000000 1.515413 -5.351311 12.371139 0.000000 6.326638 -0.000000 -5.003748 -48.663411 -11.237989 -0.000000 2.404233 -0.000000 -0.000000 -0.000000 0.000000 2.500651 -1.305642 2.107407 0.000000 1.617185 0.000000 0.000000 -0.000000 -0.000000 5.837817 -0.000000 6.138284 89.938614 -13.582423 55.663789 -0.000000 -9.745052 -0.000000 5.064239 11.813751 -46.094463 0.000000 -0.000000 -0.000000 -13.700201 0.000000 -9.837137 -97.319085 -8.302194 -17.277948 -0.000015 -5.779364 -0.000001 0.245346 13.741222 22.004989 0.000000 0.000000 -0.000000 0.000000 -0.000000 -0.000000 0.288224 13.971695 -5.069482 -0.000000 0.000000 -0.000000 
-213.022000 89.069900 -27.642800 -0.946810 1.293114 1.044402 -0.094841 -5.973231 -15.777742 -0.000000 5.443125 -0.000000 -2.450869 -43.109552 -23.286675 0.000000 -0.315601 -0.000000 -0.000000 0.000000 -0.000000 1.514011 -5.359012 12.386078 0.000000 6.335748 -0.000000 -4.969855 -48.673101 -11.209648 -0.000000 2.415378 -0.000000 0.000000 0.000000 -0.000000 2.507327 -1.319234 2.121979 0.000000 1.613959 -0.000000 0.000000 0.000000 -0.000000 5.801117 -0.000000 6.155900 89.994169 -13.592403 55.603231 -0.000000 -9.735644 -0.000000 4.986311 11.854865 -46.048284 0.000000 0.000000 0.000000 -13.703650 -0.000000 -9.818911 -97.268123 -8.313657 -17.268620 -0.000015 -5.781691 -0.000001 0.304163 13.800977 22.080779 0.000000 -0.000000 0.000000 0.000000 0.000000 -0.000000 0.265009 13.975535 -5.056859 -0.000000 0.000000 -0.000000 
-213.025000 89.069300 -27.646200 -0.938256 1.279197 1.039428 -0.101484 -5.972315 -15.748620 0.000000 5.466467 0.000000 -2.486240 -43.124844 -23.335915 -0.000000 -0.302297 -0.000000 -0.000000 -0.000000 -0.000000 1.508782 -5.347690 12.391070 -0.000000 6.339176 -0.000000 -4.983438 -48.668593 -11.213489 -0.000000 2.364675 -0.000000 0.000000 0.000000 0.000000 2.502189 -1.309833 2.107543 0.000000 1.619335 -0.000000 0.000000 0.000000 0.000000 5.808958 -0.000000 6.127271 90.010751 -13.554783 55.538059 0.000000 -9.745150 0.000000 4.968524 11.917962 -46.078404 -0.000000 0.000000 -0.000000 -13.679975 0.000000 -9.821984 -97.239750 -8.353421 -17.224937 -0.000016 -5.828874 -0.000001 0.213338 13.745014 21.977294 0.000000 -0.000000 -0.000000 0.000000 0.000000 0.000000 0.227579 13.975711 -5.036033 0.000000 0.000000 0.000000 
